<svg width="430" height="134" viewBox="0 0 430 134" fill="none" xmlns="http://www.w3.org/2000/svg">
<path fill-rule="evenodd" clip-rule="evenodd" d="M0 96.1292L17.9167 83.2583C35.8333 70.3875 71.6667 44.6458 107.5 25.3395C143.333 6.03321 179.167 -6.83764 215 3.88807C250.833 14.6138 286.667 48.936 322.5 63.952C358.333 78.968 394.167 74.6777 412.083 72.5326L430 70.3875V109H412.083C394.167 109 358.333 109 322.5 109C286.667 109 250.833 109 215 109C179.167 109 143.333 109 107.5 109C71.6667 109 35.8333 109 17.9167 109H0V96.1292Z" fill="#F8CE63"/>
<path fill-rule="evenodd" clip-rule="evenodd" d="M0 108.091L17.9167 101.614C35.8333 95.1364 71.6667 82.1818 107.5 77.8636C143.333 73.5455 179.167 77.8636 215 69.2273C250.833 60.5909 286.667 39 322.5 39C358.333 39 394.167 60.5909 412.083 71.3864L430 82.1818V134H412.083C394.167 134 358.333 134 322.5 134C286.667 134 250.833 134 215 134C179.167 134 143.333 134 107.5 134C71.6667 134 35.8333 134 17.9167 134H0V108.091Z" fill="#C0A358"/>
</svg>
